<mxfile host="Electron" modified="2024-02-04T15:15:42.871Z" agent="Mozilla/5.0 (Windows NT 10.0; Win64; x64) AppleWebKit/537.36 (KHTML, like Gecko) draw.io/22.1.18 Chrome/120.0.6099.199 Electron/28.1.2 Safari/537.36" etag="qrv99a6bHHYcgSDfFGQ-" version="22.1.18" type="device">
  <diagram name="Page-1" id="16XjI0kiUn-NuyR_T_i7">
    <mxGraphModel dx="1127" dy="973" grid="1" gridSize="10" guides="1" tooltips="1" connect="1" arrows="1" fold="1" page="1" pageScale="1" pageWidth="850" pageHeight="1100" math="0" shadow="0">
      <root>
        <mxCell id="0" />
        <mxCell id="1" parent="0" />
        <mxCell id="dFhbQ2jlh1eT3Z2HHcco-13" style="rounded=0;orthogonalLoop=1;jettySize=auto;html=1;exitX=0.5;exitY=1;exitDx=0;exitDy=0;entryX=0.5;entryY=0;entryDx=0;entryDy=0;edgeStyle=orthogonalEdgeStyle;curved=1;" edge="1" parent="1" source="dFhbQ2jlh1eT3Z2HHcco-1" target="dFhbQ2jlh1eT3Z2HHcco-2">
          <mxGeometry relative="1" as="geometry" />
        </mxCell>
        <mxCell id="dFhbQ2jlh1eT3Z2HHcco-14" style="edgeStyle=orthogonalEdgeStyle;rounded=0;orthogonalLoop=1;jettySize=auto;html=1;exitX=0.5;exitY=1;exitDx=0;exitDy=0;entryX=0.5;entryY=0;entryDx=0;entryDy=0;curved=1;" edge="1" parent="1" source="dFhbQ2jlh1eT3Z2HHcco-1" target="dFhbQ2jlh1eT3Z2HHcco-7">
          <mxGeometry relative="1" as="geometry" />
        </mxCell>
        <mxCell id="dFhbQ2jlh1eT3Z2HHcco-1" value="&lt;font size=&quot;3&quot;&gt;&lt;b&gt;AB&lt;/b&gt;&lt;/font&gt;" style="ellipse;whiteSpace=wrap;html=1;" vertex="1" parent="1">
          <mxGeometry x="375" y="150" width="50" height="50" as="geometry" />
        </mxCell>
        <mxCell id="dFhbQ2jlh1eT3Z2HHcco-15" style="edgeStyle=orthogonalEdgeStyle;rounded=0;orthogonalLoop=1;jettySize=auto;html=1;exitX=0.5;exitY=1;exitDx=0;exitDy=0;entryX=0.5;entryY=0;entryDx=0;entryDy=0;curved=1;" edge="1" parent="1" source="dFhbQ2jlh1eT3Z2HHcco-2" target="dFhbQ2jlh1eT3Z2HHcco-4">
          <mxGeometry relative="1" as="geometry" />
        </mxCell>
        <mxCell id="dFhbQ2jlh1eT3Z2HHcco-2" value="&lt;font size=&quot;3&quot;&gt;&lt;b&gt;I&lt;/b&gt;&lt;/font&gt;" style="ellipse;whiteSpace=wrap;html=1;" vertex="1" parent="1">
          <mxGeometry x="257.5" y="245" width="50" height="50" as="geometry" />
        </mxCell>
        <mxCell id="dFhbQ2jlh1eT3Z2HHcco-21" style="edgeStyle=orthogonalEdgeStyle;rounded=0;orthogonalLoop=1;jettySize=auto;html=1;exitX=0.5;exitY=1;exitDx=0;exitDy=0;curved=1;" edge="1" parent="1" source="dFhbQ2jlh1eT3Z2HHcco-3" target="dFhbQ2jlh1eT3Z2HHcco-10">
          <mxGeometry relative="1" as="geometry" />
        </mxCell>
        <mxCell id="dFhbQ2jlh1eT3Z2HHcco-3" value="&lt;font size=&quot;3&quot;&gt;&lt;b&gt;R&lt;/b&gt;&lt;/font&gt;" style="ellipse;whiteSpace=wrap;html=1;" vertex="1" parent="1">
          <mxGeometry x="430" y="355" width="50" height="50" as="geometry" />
        </mxCell>
        <mxCell id="dFhbQ2jlh1eT3Z2HHcco-16" style="edgeStyle=orthogonalEdgeStyle;rounded=0;orthogonalLoop=1;jettySize=auto;html=1;exitX=0.5;exitY=1;exitDx=0;exitDy=0;entryX=0.5;entryY=0;entryDx=0;entryDy=0;curved=1;" edge="1" parent="1" source="dFhbQ2jlh1eT3Z2HHcco-4" target="dFhbQ2jlh1eT3Z2HHcco-5">
          <mxGeometry relative="1" as="geometry" />
        </mxCell>
        <mxCell id="dFhbQ2jlh1eT3Z2HHcco-17" style="edgeStyle=orthogonalEdgeStyle;rounded=0;orthogonalLoop=1;jettySize=auto;html=1;exitX=0.5;exitY=1;exitDx=0;exitDy=0;entryX=0.5;entryY=0;entryDx=0;entryDy=0;curved=1;" edge="1" parent="1" source="dFhbQ2jlh1eT3Z2HHcco-4" target="dFhbQ2jlh1eT3Z2HHcco-6">
          <mxGeometry relative="1" as="geometry" />
        </mxCell>
        <mxCell id="dFhbQ2jlh1eT3Z2HHcco-4" value="&lt;font size=&quot;3&quot;&gt;&lt;b&gt;RT&lt;/b&gt;&lt;/font&gt;" style="ellipse;whiteSpace=wrap;html=1;" vertex="1" parent="1">
          <mxGeometry x="177.5" y="365" width="50" height="50" as="geometry" />
        </mxCell>
        <mxCell id="dFhbQ2jlh1eT3Z2HHcco-5" value="&lt;font size=&quot;3&quot;&gt;&lt;b&gt;.&lt;/b&gt;&lt;/font&gt;" style="ellipse;whiteSpace=wrap;html=1;" vertex="1" parent="1">
          <mxGeometry x="117.5" y="485" width="50" height="50" as="geometry" />
        </mxCell>
        <mxCell id="dFhbQ2jlh1eT3Z2HHcco-6" value="&lt;font size=&quot;3&quot;&gt;&lt;b&gt;.&lt;/b&gt;&lt;/font&gt;" style="ellipse;whiteSpace=wrap;html=1;" vertex="1" parent="1">
          <mxGeometry x="217.5" y="485" width="50" height="50" as="geometry" />
        </mxCell>
        <mxCell id="dFhbQ2jlh1eT3Z2HHcco-18" style="edgeStyle=orthogonalEdgeStyle;rounded=0;orthogonalLoop=1;jettySize=auto;html=1;exitX=0.5;exitY=1;exitDx=0;exitDy=0;entryX=0.5;entryY=0;entryDx=0;entryDy=0;curved=1;" edge="1" parent="1" source="dFhbQ2jlh1eT3Z2HHcco-7" target="dFhbQ2jlh1eT3Z2HHcco-3">
          <mxGeometry relative="1" as="geometry" />
        </mxCell>
        <mxCell id="dFhbQ2jlh1eT3Z2HHcco-19" style="edgeStyle=orthogonalEdgeStyle;rounded=0;orthogonalLoop=1;jettySize=auto;html=1;exitX=0.5;exitY=1;exitDx=0;exitDy=0;curved=1;" edge="1" parent="1" source="dFhbQ2jlh1eT3Z2HHcco-7" target="dFhbQ2jlh1eT3Z2HHcco-8">
          <mxGeometry relative="1" as="geometry" />
        </mxCell>
        <mxCell id="dFhbQ2jlh1eT3Z2HHcco-20" style="edgeStyle=orthogonalEdgeStyle;rounded=0;orthogonalLoop=1;jettySize=auto;html=1;exitX=0.5;exitY=1;exitDx=0;exitDy=0;entryX=0.5;entryY=0;entryDx=0;entryDy=0;curved=1;" edge="1" parent="1" source="dFhbQ2jlh1eT3Z2HHcco-7" target="dFhbQ2jlh1eT3Z2HHcco-12">
          <mxGeometry relative="1" as="geometry" />
        </mxCell>
        <mxCell id="dFhbQ2jlh1eT3Z2HHcco-7" value="&lt;font size=&quot;3&quot;&gt;&lt;b&gt;AIM&lt;/b&gt;&lt;/font&gt;" style="ellipse;whiteSpace=wrap;html=1;" vertex="1" parent="1">
          <mxGeometry x="520" y="245" width="50" height="50" as="geometry" />
        </mxCell>
        <mxCell id="dFhbQ2jlh1eT3Z2HHcco-22" style="edgeStyle=orthogonalEdgeStyle;rounded=0;orthogonalLoop=1;jettySize=auto;html=1;exitX=0.5;exitY=1;exitDx=0;exitDy=0;entryX=0.5;entryY=0;entryDx=0;entryDy=0;curved=1;" edge="1" parent="1" source="dFhbQ2jlh1eT3Z2HHcco-8" target="dFhbQ2jlh1eT3Z2HHcco-9">
          <mxGeometry relative="1" as="geometry" />
        </mxCell>
        <mxCell id="dFhbQ2jlh1eT3Z2HHcco-8" value="&lt;font size=&quot;3&quot;&gt;&lt;b&gt;L&lt;/b&gt;&lt;/font&gt;" style="ellipse;whiteSpace=wrap;html=1;" vertex="1" parent="1">
          <mxGeometry x="520" y="355" width="50" height="50" as="geometry" />
        </mxCell>
        <mxCell id="dFhbQ2jlh1eT3Z2HHcco-9" value="&lt;font size=&quot;3&quot;&gt;&lt;b&gt;.&lt;/b&gt;&lt;/font&gt;" style="ellipse;whiteSpace=wrap;html=1;" vertex="1" parent="1">
          <mxGeometry x="520" y="465" width="50" height="50" as="geometry" />
        </mxCell>
        <mxCell id="dFhbQ2jlh1eT3Z2HHcco-10" value="&lt;font size=&quot;3&quot;&gt;&lt;b&gt;.&lt;/b&gt;&lt;/font&gt;" style="ellipse;whiteSpace=wrap;html=1;" vertex="1" parent="1">
          <mxGeometry x="430" y="465" width="50" height="50" as="geometry" />
        </mxCell>
        <mxCell id="dFhbQ2jlh1eT3Z2HHcco-12" value="&lt;font size=&quot;3&quot;&gt;&lt;b&gt;.&lt;/b&gt;&lt;/font&gt;" style="ellipse;whiteSpace=wrap;html=1;" vertex="1" parent="1">
          <mxGeometry x="620" y="355" width="50" height="50" as="geometry" />
        </mxCell>
        <mxCell id="dFhbQ2jlh1eT3Z2HHcco-23" value="&lt;font face=&quot;Lucida Console&quot;&gt;EOS&lt;/font&gt;" style="text;html=1;strokeColor=none;fillColor=none;align=center;verticalAlign=middle;whiteSpace=wrap;rounded=0;" vertex="1" parent="1">
          <mxGeometry x="235" y="550" width="60" height="30" as="geometry" />
        </mxCell>
        <mxCell id="dFhbQ2jlh1eT3Z2HHcco-24" value="&lt;font face=&quot;Lucida Console&quot;&gt;EOS&lt;/font&gt;" style="text;html=1;strokeColor=none;fillColor=none;align=center;verticalAlign=middle;whiteSpace=wrap;rounded=0;" vertex="1" parent="1">
          <mxGeometry x="140" y="550" width="60" height="30" as="geometry" />
        </mxCell>
        <mxCell id="dFhbQ2jlh1eT3Z2HHcco-25" value="&lt;font face=&quot;Lucida Console&quot;&gt;EOS&lt;/font&gt;" style="text;html=1;strokeColor=none;fillColor=none;align=center;verticalAlign=middle;whiteSpace=wrap;rounded=0;" vertex="1" parent="1">
          <mxGeometry x="420" y="530" width="60" height="30" as="geometry" />
        </mxCell>
        <mxCell id="dFhbQ2jlh1eT3Z2HHcco-26" value="&lt;font face=&quot;Lucida Console&quot;&gt;EOS&lt;/font&gt;" style="text;html=1;strokeColor=none;fillColor=none;align=center;verticalAlign=middle;whiteSpace=wrap;rounded=0;" vertex="1" parent="1">
          <mxGeometry x="515" y="530" width="60" height="30" as="geometry" />
        </mxCell>
        <mxCell id="dFhbQ2jlh1eT3Z2HHcco-27" value="&lt;font face=&quot;Lucida Console&quot;&gt;EOS&lt;/font&gt;" style="text;html=1;strokeColor=none;fillColor=none;align=center;verticalAlign=middle;whiteSpace=wrap;rounded=0;" vertex="1" parent="1">
          <mxGeometry x="615" y="425" width="60" height="30" as="geometry" />
        </mxCell>
        <mxCell id="dFhbQ2jlh1eT3Z2HHcco-28" value="&lt;font style=&quot;font-size: 18px;&quot;&gt;&lt;b&gt;Result Strings:&lt;br&gt;&lt;/b&gt;&lt;br&gt;AIR&lt;br&gt;AIT&lt;/font&gt;" style="text;html=1;strokeColor=none;fillColor=none;align=left;verticalAlign=middle;whiteSpace=wrap;rounded=0;" vertex="1" parent="1">
          <mxGeometry x="160" y="600" width="75" height="130" as="geometry" />
        </mxCell>
        <mxCell id="dFhbQ2jlh1eT3Z2HHcco-29" value="&lt;font style=&quot;font-size: 18px;&quot;&gt;&lt;b&gt;Result Strings:&lt;br&gt;&lt;/b&gt;&lt;br&gt;BAR&lt;br&gt;BIL&lt;br&gt;BM&lt;br&gt;&lt;/font&gt;" style="text;html=1;strokeColor=none;fillColor=none;align=left;verticalAlign=middle;whiteSpace=wrap;rounded=0;" vertex="1" parent="1">
          <mxGeometry x="530" y="610" width="75" height="130" as="geometry" />
        </mxCell>
        <mxCell id="dFhbQ2jlh1eT3Z2HHcco-30" value="" style="endArrow=none;dashed=1;html=1;dashPattern=1 3;strokeWidth=2;rounded=0;" edge="1" parent="1">
          <mxGeometry width="50" height="50" relative="1" as="geometry">
            <mxPoint x="399" y="740" as="sourcePoint" />
            <mxPoint x="399" y="210" as="targetPoint" />
          </mxGeometry>
        </mxCell>
      </root>
    </mxGraphModel>
  </diagram>
</mxfile>
